<?xml version="1.0" standalone="no"?><!DOCTYPE svg PUBLIC "-//W3C//DTD SVG 1.1//EN" "http://www.w3.org/Graphics/SVG/1.1/DTD/svg11.dtd"><svg t="1697451229498" class="icon" viewBox="0 0 1024 1024" version="1.1" xmlns="http://www.w3.org/2000/svg" p-id="23982" xmlns:xlink="http://www.w3.org/1999/xlink" width="200" height="200"><path d="M354.40128 0c-87.04 0-157.44 70.55872-157.44 157.59872v275.68128H78.72c-21.6576 0-39.36256 17.69984-39.36256 39.36256v236.31872c0 21.6576 17.69984 39.35744 39.36256 39.35744h118.24128v118.08256c0 87.04 70.4 157.59872 157.44 157.59872h472.63744c87.04 0 157.59872-70.55872 157.59872-157.59872V315.0336c0-41.74848-38.9888-81.93024-107.52-149.27872l-29.11744-29.12256L818.87744 107.52C751.5392 38.9888 711.39328 0 669.59872 0H354.4064z m0 78.72h287.20128c28.35456 7.0912 27.99616 42.1376 27.99616 76.8v120.16128c0 21.6576 17.69984 39.35744 39.36256 39.35744h118.07744c39.38816 0 78.87872-0.0256 78.87872 39.36256v512c0 43.32032-35.55328 78.87872-78.87872 78.87872H354.4064c-43.32544 0-78.72-35.5584-78.72-78.87872v-118.08256h393.91744c21.66272 0 39.36256-17.69472 39.36256-39.35744V472.64256c0-21.66272-17.69984-39.36256-39.36256-39.36256H275.68128V157.59872c0-43.32032 35.39456-78.87872 78.72-78.87872zM256.79872 506.39872h20.16256l65.28 176.64h-23.04l-19.2-54.71744h-65.28l-19.2 54.71744h-23.04l64.31744-176.64z m77.76256 0.96256h23.99744l35.52256 111.36c3.2 10.88 6.71744 24.32 10.55744 40.32 1.92-11.52 5.44256-25.28256 10.56256-41.28256l35.51744-110.39744h23.04l-58.55744 175.67744H393.1136L334.56128 507.36128z m148.79744 0h64.32256v12.47744l-21.12 4.80256v141.11744l21.12 4.80256v12.47744H483.35872v-12.47744l21.12-4.80256V524.6464l-21.12-4.80256v-12.47744z m-215.99744 23.04c-1.92 8.96-4.80256 18.23744-8.64256 27.83744l-17.28 50.88256h51.84l-18.23744-50.88256c-3.84-10.88-6.4-20.15744-7.68-27.83744z" p-id="23983"></path></svg>