<?xml version="1.0" standalone="no"?><!DOCTYPE svg PUBLIC "-//W3C//DTD SVG 1.1//EN" "http://www.w3.org/Graphics/SVG/1.1/DTD/svg11.dtd"><svg t="1697451191076" class="icon" viewBox="0 0 1024 1024" version="1.1" xmlns="http://www.w3.org/2000/svg" p-id="22498" xmlns:xlink="http://www.w3.org/1999/xlink" width="200" height="200"><path d="M809.5 959.7H214.2c-33.7 0-61.2-27.4-61.2-61.2v-92.7c0-12.7 10.3-23 23-23s23 10.3 23 23v92.7c0 8.4 6.8 15.2 15.2 15.2h595.3c8.4 0 15.2-6.8 15.2-15.2v-92.7c0-12.7 10.3-23 23-23s23 10.3 23 23v92.7c0 33.7-27.5 61.2-61.2 61.2zM847.7 535.1c-12.7 0-23-10.3-23-23V304.5L631.4 110H214.2c-8.4 0-15.2 6.8-15.2 15.2V512c0 12.7-10.3 23-23 23s-23-10.3-23-23V125.2c0-33.7 27.4-61.2 61.2-61.2H641c6.1 0 12 2.4 16.3 6.8l206.7 208c4.3 4.3 6.7 10.1 6.7 16.2v217.1c0 12.7-10.3 23-23 23z" fill="#231815" p-id="22499"></path><path d="M828 318H639c-12.7 0-23-10.3-23-23V95c0-12.7 10.3-23 23-23s23 10.3 23 23v177h166c12.7 0 23 10.3 23 23s-10.3 23-23 23zM937.4 825H87c-12.7 0-23-10.3-23-23V527c0-12.7 10.3-23 23-23h850.4c12.7 0 23 10.3 23 23v275c0 12.7-10.3 23-23 23zM110 779h804.4V550H110v229zM469.7 279.5l-115.1-66.4c-13-7.5-29.2 1.9-29.2 16.8v132.9c0 15 16.2 24.3 29.2 16.8l115.1-66.4c13-7.5 13-26.2 0-33.7z" fill="#231815" p-id="22500"></path><path d="M392.5 754.8V647.1c0-9.9 0.5-22.4 1.5-37.5h-0.9c-2.3 11.4-4.1 19-5.5 22.8l-43.8 122.5h-30.2l-44.4-121.3c-1.1-2.9-2.9-10.9-5.6-24h-1c1 14.9 1.5 29.9 1.5 44.8v100.5h-34.2V577.2h55l38.3 107.3c3.2 8.9 5.4 17.2 6.5 25h0.8c2.4-9.7 4.8-18.1 7.3-25.2l38.4-107.1h53.6v177.6h-37.3zM460.3 668.4c0-27.8 8.1-50.5 24.4-67.9 16.2-17.5 37.7-26.2 64.4-26.2 25.4 0 45.8 8.4 61.3 25.3s23.2 38.6 23.2 65.1c0 27.7-8 50.1-24.1 67.4-16.1 17.2-37.2 25.9-63.2 25.9-25.5 0-46.1-8.4-62-25.1-16.1-16.7-24-38.2-24-64.5z m39.8-2.1c0 17.3 4.2 31.4 12.5 42.4s19.8 16.5 34.3 16.5c14.8 0 26.4-5.3 34.6-15.8 8.3-10.5 12.4-24.6 12.4-42.4 0-18.5-4-33.1-12-43.9-8-10.7-19.3-16.1-33.9-16.1-14.8 0-26.5 5.5-35 16.5-8.7 11.1-12.9 25.3-12.9 42.8zM809.7 577.2L748 754.8h-42.8l-60.9-177.6h40.8l38.4 125.6c1.9 6.2 3.1 12 3.6 17.5h0.7c0.6-5.7 1.9-11.7 3.9-18l38.4-125.1h39.6z" fill="#231815" p-id="22501"></path></svg>