<?xml version="1.0" standalone="no"?><!DOCTYPE svg PUBLIC "-//W3C//DTD SVG 1.1//EN" "http://www.w3.org/Graphics/SVG/1.1/DTD/svg11.dtd"><svg t="1697451183896" class="icon" viewBox="0 0 1024 1024" version="1.1" xmlns="http://www.w3.org/2000/svg" p-id="22349" xmlns:xlink="http://www.w3.org/1999/xlink" width="200" height="200"><path d="M255.996397 0A64.187733 64.187733 0 0 0 191.996397 64v896A64.170667 64.170667 0 0 0 255.996397 1024h640a64.187733 64.187733 0 0 0 64-64V256l-256-256H255.996397z" fill="#E2E5E7" p-id="22350"></path><path d="M767.996397 256H959.996397l-256-256v192A64.187733 64.187733 0 0 0 767.996397 256z" fill="#B0B7BD" p-id="22351"></path><path d="M959.996397 448L767.996397 256H959.996397z" fill="#CAD1D8" p-id="22352"></path><path d="M831.996397 829.866667a32.085333 32.085333 0 0 1-32 32H95.996397A32.085333 32.085333 0 0 1 63.996397 829.866667v-320A32.085333 32.085333 0 0 1 95.996397 477.866667h704A32.085333 32.085333 0 0 1 831.996397 509.866667v320z" fill="#6236FF" p-id="22353"></path><path d="M799.996397 864H191.996397V896h608A32.085333 32.085333 0 0 0 831.996397 864V832a32.085333 32.085333 0 0 1-32 32z" fill="#CAD1D8" p-id="22354"></path><path d="M386.266264 753.408c0.341333 2.56 0.4608 5.034667 0.375467 7.424a13.4144 13.4144 0 0 1-1.655467 6.263467 11.093333 11.093333 0 0 1-4.864 4.352c-2.218667 1.1264-5.290667 1.672533-9.216 1.672533-5.461333 0.170667-9.181867-1.0752-11.144533-3.703467-1.962667-2.6624-3.362133-6.9632-4.215467-12.936533l-12.288-92.416c-0.682667-3.925333-1.706667-5.888-3.072-5.888-1.365333 0-2.645333 1.962667-3.84 5.888l-28.672 98.304a16.827733 16.827733 0 0 1-4.232533 7.799467c-1.962667 1.962667-5.666133 2.952533-11.127467 2.952533-2.901333 0-5.290667-0.2048-7.168-0.631467a11.4688 11.4688 0 0 1-4.608-2.048 9.1136 9.1136 0 0 1-2.696533-3.345066 30.020267 30.020267 0 0 1-1.655467-4.727467c-4.949333-16.554667-9.864533-32.904533-14.728533-49.032533-4.864-16.110933-9.6768-32.4608-14.455467-49.015467-1.194667-4.096-2.440533-6.144-3.720533-6.144-1.28 0-2.2528 2.048-2.935467 6.144l-12.032 90.624c-0.853333 6.144-2.525867 10.7008-5.000533 13.704533-2.474667 2.986667-6.946133 4.471467-13.431467 4.471467-5.290667 0-8.96-1.501867-11.008-4.471467-2.048-3.003733-2.474667-8.072533-1.28-15.240533l22.016-145.152c0.853333-5.973333 3.106133-10.581333 6.775467-13.824 3.669333-3.242667 8.2432-4.864 13.704533-4.864 5.461333 0 10.069333 1.365333 13.824 4.096 3.754667 2.730667 6.826667 8.192 9.216 16.384l29.184 107.008 28.416-107.52c2.218667-8.021333 5.239467-13.346133 9.079467-15.991467 3.84-2.645333 8.328533-3.976533 13.448533-3.976533 4.949333 0 9.4208 1.672533 13.431467 4.983467 4.010667 3.328 6.536533 8.157867 7.560533 14.472533l22.016 144.384zM424.324931 609.024c0-3.584 0.290133-6.485333 0.887466-8.704a8.789333 8.789333 0 0 1 3.464534-5.12c1.706667-1.194667 4.130133-1.9968 7.287466-2.423467 3.157333-0.426667 7.304533-0.648533 12.424534-0.648533h36.096c11.264 0 20.770133 0.938667 28.535466 2.816 7.765333 1.877333 14.1312 5.034667 19.080534 9.472 4.949333 4.437333 8.533333 10.2912 10.752 17.544533 2.218667 7.253333 3.328 16.162133 3.328 26.743467s-1.194667 19.626667-3.584 27.136c-2.389333 7.509333-6.058667 13.653333-11.008 18.432-4.949333 4.778667-11.3152 8.277333-19.080534 10.496-7.765333 2.218667-17.1008 3.328-28.023466 3.328h-26.88v51.712c0 3.413333-1.28 6.485333-3.84 9.216-2.56 2.730667-6.826667 4.096-12.8 4.096s-10.24-1.450667-12.8-4.352c-2.56-2.901333-3.84-5.888-3.84-8.96v-150.784z m33.28 70.4h26.88c10.922667 0 18.3808-2.389333 22.391466-7.168 4.010667-4.778667 6.024533-12.544 6.024534-23.296 0-5.632-0.733867-10.24-2.184534-13.824a21.2992 21.2992 0 0 0-6.007466-8.584533 20.957867 20.957867 0 0 0-8.96-4.352c-3.413333-0.768-7.168-1.143467-11.264-1.143467h-26.88v58.368zM668.975597 772.352c-6.144 0-10.325333-0.768-12.544-2.304-2.218667-1.536-3.328-4.096-3.328-7.68v-26.112h-65.536c-5.290667 0-9.0112-1.536-11.144533-4.608-2.133333-3.072-3.191467-6.997333-3.191467-11.776 0-2.048 0.034133-3.84 0.119467-5.376s0.3072-2.986667 0.648533-4.352c0.341333-1.365333 0.853333-2.679467 1.536-3.959467 0.682667-1.28 1.706667-2.781867 3.072-4.488533l58.112-88.832c3.242667-5.12 6.007467-9.250133 8.311467-12.407467 2.304-3.157333 4.488533-5.632 6.536533-7.424a16.110933 16.110933 0 0 1 6.4-3.584c2.218667-0.597333 4.864-0.904533 7.936-0.904533 7.168 0 12.202667 1.450667 15.104 4.352 2.901333 2.901333 4.352 7.594667 4.352 14.08v100.096h8.448c4.778667 0 7.168 4.778667 7.168 14.336 0 9.898667-2.389333 14.848-7.168 14.848h-8.448v26.112c0 3.925333-1.109333 6.570667-3.328 7.936-2.218667 1.365333-6.570667 2.048-13.056 2.048z m-15.872-65.28v-70.656l-44.288 70.656h44.288z" fill="#FFFFFF" p-id="22355"></path></svg>