<?xml version="1.0" standalone="no"?><!DOCTYPE svg PUBLIC "-//W3C//DTD SVG 1.1//EN" "http://www.w3.org/Graphics/SVG/1.1/DTD/svg11.dtd"><svg t="1697451300741" class="icon" viewBox="0 0 1024 1024" version="1.1" xmlns="http://www.w3.org/2000/svg" p-id="29478" xmlns:xlink="http://www.w3.org/1999/xlink" width="200" height="200"><path d="M694.857143 243.983673H329.142857c-11.493878 0-20.897959-9.404082-20.897959-20.897959s9.404082-20.897959 20.897959-20.897959h365.714286c11.493878 0 20.897959 9.404082 20.897959 20.897959s-9.404082 20.897959-20.897959 20.897959z" fill="#333333" p-id="29479"></path><path d="M820.244898 459.755102H203.755102V177.632653c0-45.97551 37.616327-83.591837 83.591837-83.591837h449.306122c45.97551 0 83.591837 37.616327 83.591837 83.591837v282.122449zM245.55102 417.959184h532.89796V177.632653c0-22.987755-18.808163-41.795918-41.795919-41.795918H287.346939c-22.987755 0-41.795918 18.808163-41.795919 41.795918v240.326531zM736.653061 929.959184H287.346939c-45.97551 0-83.591837-37.616327-83.591837-83.591837v-114.938776h616.489796v114.938776c0 45.97551-37.616327 83.591837-83.591837 83.591837z m-491.102041-156.734694v73.142857c0 22.987755 18.808163 41.795918 41.795919 41.795918h449.306122c22.987755 0 41.795918-18.808163 41.795919-41.795918v-73.142857H245.55102z" fill="#333333" p-id="29480"></path><path d="M846.367347 773.22449H177.632653c-45.97551 0-83.591837-37.616327-83.591837-83.591837V501.55102c0-45.97551 37.616327-83.591837 83.591837-83.591836h668.734694c45.97551 0 83.591837 37.616327 83.591837 83.591836v188.081633c0 45.97551-37.616327 83.591837-83.591837 83.591837zM177.632653 459.755102c-22.987755 0-41.795918 18.808163-41.795918 41.795918v188.081633c0 22.987755 18.808163 41.795918 41.795918 41.795918h668.734694c22.987755 0 41.795918-18.808163 41.795918-41.795918V501.55102c0-22.987755-18.808163-41.795918-41.795918-41.795918H177.632653zM694.857143 351.608163H329.142857c-11.493878 0-20.897959-9.404082-20.897959-20.897959s9.404082-20.897959 20.897959-20.897959h365.714286c11.493878 0 20.897959 9.404082 20.897959 20.897959s-9.404082 20.897959-20.897959 20.897959z" fill="#333333" p-id="29481"></path><path d="M390.791837 544.914286v125.387755h-13.061225v-125.387755h-42.318367v-10.971429h98.742857v10.971429h-43.363265z" fill="#333333" p-id="29482"></path><path d="M390.791837 675.526531h-13.061225c-3.134694 0-5.22449-2.089796-5.22449-5.22449v-120.163265h-37.093877c-3.134694 0-5.22449-2.089796-5.22449-5.22449v-10.971429c0-3.134694 2.089796-5.22449 5.22449-5.22449h98.742857c3.134694 0 5.22449 2.089796 5.22449 5.22449v10.971429c0 3.134694-2.089796 5.22449-5.22449 5.22449h-38.138775v120.163265c0 3.134694-2.089796 5.22449-5.22449 5.22449z m-7.314286-10.44898h2.612245v-120.163265c0-3.134694 2.089796-5.22449 5.22449-5.22449h38.138775v-0.522449h-88.816326v0.522449h37.093877c3.134694 0 5.22449 2.089796 5.22449 5.22449v120.163265zM553.795918 670.302041l-41.795918-62.693878-41.795918 62.693878h-14.106123l49.110204-71.57551-45.453061-64.783674h14.106122L512 590.367347l37.616327-56.42449h14.628571l-43.885714 64.783674 48.065306 71.57551H553.795918z" fill="#333333" p-id="29483"></path><path d="M567.902041 675.526531H553.795918c-1.567347 0-3.134694-1.044898-4.179591-2.089796L512 617.012245l-37.616327 55.902041c-1.044898 1.567347-2.612245 2.089796-4.179591 2.089796h-14.106123c-2.089796 0-3.657143-1.044898-4.702041-2.612245s-1.044898-3.657143 0.522449-5.22449l47.020409-68.963265-42.840817-61.64898c-1.044898-1.567347-1.044898-3.657143-0.522449-5.22449 1.044898-1.567347 2.612245-2.612245 4.702041-2.612245h14.106122c1.567347 0 3.134694 1.044898 4.179592 2.089796l33.959184 50.155102 32.914286-50.155102c1.044898-1.567347 2.612245-2.089796 4.179592-2.089796h14.628571c2.089796 0 3.657143 1.044898 4.702041 2.612245 1.044898 1.567347 1.044898 3.657143-0.522449 5.22449l-41.795919 61.64898 45.975511 68.963265c1.044898 1.567347 1.044898 3.657143 0 5.22449-0.522449 2.089796-2.612245 3.134694-4.702041 3.134694z m-11.493878-10.44898h2.089796l-42.318367-63.738775c-1.044898-1.567347-1.044898-4.179592 0-5.746939l38.138775-56.42449h-1.567347l-36.048979 54.334694c-1.044898 1.567347-2.612245 2.089796-4.179592 2.089796-1.567347 0-3.134694-1.044898-4.179592-2.089796l-36.571428-54.334694H470.204082l39.183673 56.42449c1.044898 1.567347 1.044898 4.179592 0 5.746939l-43.363265 63.738775h1.567347l40.228571-60.081633c1.044898-1.567347 2.612245-2.089796 4.179592-2.089796 1.567347 0 3.134694 1.044898 4.179592 2.089796l40.228571 60.081633z" fill="#333333" p-id="29484"></path><path d="M645.22449 544.914286v125.387755H632.163265v-125.387755h-42.318367v-10.971429h98.742857v10.971429h-43.363265z" fill="#333333" p-id="29485"></path><path d="M645.22449 675.526531H632.163265c-3.134694 0-5.22449-2.089796-5.224489-5.22449v-120.163265h-37.093878c-3.134694 0-5.22449-2.089796-5.22449-5.22449v-10.971429c0-3.134694 2.089796-5.22449 5.22449-5.22449h98.742857c3.134694 0 5.22449 2.089796 5.22449 5.22449v10.971429c0 3.134694-2.089796 5.22449-5.22449 5.22449h-38.138775v120.163265c0 3.134694-2.612245 5.22449-5.22449 5.22449z m-7.836735-10.44898h2.612245v-120.163265c0-3.134694 2.089796-5.22449 5.22449-5.22449h38.138775v-0.522449h-88.293877v0.522449h37.093877c3.134694 0 5.22449 2.089796 5.22449 5.22449v120.163265z" fill="#333333" p-id="29486"></path></svg>