<svg xmlns="http://www.w3.org/2000/svg" xmlns:xlink="http://www.w3.org/1999/xlink" fill="none" version="1.1" width="20" height="16" viewBox="0 0 20 16"><g style="mix-blend-mode:passthrough"><g><path d="M2.13115,1.50943C1.85953,1.50943,1.63934,1.71217,1.63934,1.96226L1.63934,14.0377C1.63934,14.2877,1.85967,14.4906,2.13115,14.4906L17.8689,14.4906C18.1405,14.4906,18.3607,14.2878,18.3607,14.0377L18.3607,1.96226C18.3607,1.71217,18.1405,1.50943,17.8689,1.50943L2.13115,1.50943ZM2.13115,0L17.8689,0C19.0452,0,20,0.879094,20,1.96226L20,14.0377C20,15.1209,19.0452,16,17.8689,16L2.13115,16C0.954147,16,1.95425e-7,15.1215,0,14.0377L0,1.96226C0,0.879094,0.954754,0,2.13115,0Z" fill="#B3B3B3" fill-opacity="1"/></g><g><path d="M17.86675473461151,14.490501397857667C18.13835473461151,14.490501397857667,18.358554734611513,14.287761397857665,18.358554734611513,14.037671397857666L18.358554734611513,10.700011397857665C18.358554734611513,10.072091397857665,17.972954734611513,9.496091397857667,17.361854734611512,9.214731397857665L14.96315473461151,8.111031397857666C14.371454734611511,7.838591397857666,13.665254734611512,7.886331397857666,13.12315473461151,8.235411397857666L3.418214734611511,14.490501397857667L17.86675473461151,14.490501397857667ZM18.094954734611512,7.864691397857666C19.261154734611512,8.401561397857666,19.99785473461151,9.499221397857665,19.99785473461151,10.700011397857665L19.99785473461151,14.037671397857666C19.99785473461151,15.120841397857665,19.043154734611512,15.999941397857667,17.86675473461151,15.999941397857667L2.481814734611511,15.999941397857667C1.8948177346115114,16.000261397857667,1.3754677346115112,15.649851397857667,1.1989625346115111,15.134381397857666C1.0224577346115111,14.618911397857666,1.2296164346115113,14.057591397857667,1.710670734611511,13.747861397857665L12.18275473461151,6.998883397857666C13.217854734611512,6.332057197857666,14.566354734611512,6.240750397857666,15.69625473461151,6.760996397857666L18.094954734611512,7.864691397857666Z" fill="#B3B3B3" fill-opacity="1"/></g><g><path d="M5.408930538482666,6.188674365844727C6.133590538482666,6.189134365844726,6.7213105384826655,5.648364365844726,6.7213105384826655,4.981134365844726C6.7213105384826655,4.313896365844727,6.133590538482666,3.7731237228447267,5.408930538482666,3.7735850855987265C4.684976538482666,3.7740450088447264,4.098360538482666,4.314547365844726,4.098360538482666,4.981134365844726C4.098360538482666,5.647714365844727,4.684976538482666,6.188214365844726,5.408930538482666,6.188674365844727Z" fill="#B3B3B3" fill-opacity="1"/></g></g></svg>