<svg xmlns="http://www.w3.org/2000/svg" xmlns:xlink="http://www.w3.org/1999/xlink" fill="none" version="1.1" width="16" height="20" viewBox="0 0 16 20"><g><path d="M2.90909,7L2.90909,5.25C2.90909,2.35025,5.18788,0,8,0C10.8121,0,13.0909,2.349,13.0909,5.25L13.0909,7L13.3336,7C14.8056,7,16,8.23275,16,9.75L16,17.25C16,18.7693,14.8075,20,13.3336,20L2.66667,20C1.19442,20,0,18.7672,0,17.25L0,9.75C0,8.23075,1.19248,7,2.66642,7L2.90909,7ZM4.36364,7L11.6364,7L11.6364,5.25C11.6364,3.1775,10.009,1.5,8,1.5C5.99127,1.5,4.36364,3.17875,4.36364,5.25L4.36364,7ZM1.45455,9.75L1.45455,17.25C1.45455,17.939,1.99806,18.5,2.66642,18.5L13.3333,18.5C14.0031,18.5008,14.5463,17.9407,14.5455,17.25L14.5455,9.75C14.5455,9.061,14.0019,8.5,13.3336,8.5L2.66667,8.5C1.9969,8.49917,1.45374,9.0593,1.45455,9.75Z" fill="#B3B3B3" fill-opacity="1"/></g></svg>