<svg xmlns="http://www.w3.org/2000/svg" xmlns:xlink="http://www.w3.org/1999/xlink" fill="none" version="1.1" width="18" height="20" viewBox="0 0 18 20"><g><path d="M2.82857,0L15.1714,0C16.7336,0,18,1.23125,18,2.75L18,17.25C18,18.7688,16.7336,20,15.1714,20L2.82857,20C1.26643,20,0,18.7688,0,17.25L0,2.75C0,1.23125,1.26643,0,2.82857,0ZM2.82857,1.5C2.11849,1.5,1.54286,2.05964,1.54286,2.75L1.54286,17.25C1.54286,17.9404,2.11849,18.5,2.82857,18.5L15.1714,18.5C15.8815,18.5,16.4571,17.9404,16.4571,17.25L16.4571,2.75C16.4571,2.05964,15.8815,1.5,15.1714,1.5L2.82857,1.5ZM6.94286,16C6.51681,16,6.17143,15.6642,6.17143,15.25C6.17143,14.8358,6.51681,14.5,6.94286,14.5L11.0571,14.5C11.4832,14.5,11.8286,14.8358,11.8286,15.25C11.8286,15.6642,11.4832,16,11.0571,16L6.94286,16Z" fill="#B3B3B3" fill-opacity="1"/></g></svg>