<svg xmlns="http://www.w3.org/2000/svg" xmlns:xlink="http://www.w3.org/1999/xlink" fill="nonzero" version="1.1" width="20" height="20" viewBox="0 0 20 20"><defs><clipPath id="master_svg0_106_9424"><rect x="0" y="0" width="20" height="20" rx="0"/></clipPath></defs><g clip-path="url(#master_svg0_106_9424)"><g><path d="M18.351,16.625500000000002C18.7094,16.625500000000002,19,16.914,19,17.2699L19,17.3556C19,17.7115,18.7094,18,18.351,18L1.649022,18C1.2905769999999999,18,1,17.7115,1,17.3556L1,17.2699C1,16.914,1.2905769999999999,16.625500000000002,1.649022,16.625500000000002L18.351,16.625500000000002ZM5.88974,6.11252C6.24818,6.11252,6.53876,6.40103,6.53876,6.75692L6.53876,14.404C6.53876,14.7599,6.24818,15.0484,5.88974,15.0484L3.03404,15.0484C2.6755899999999997,15.0484,2.3850100000000003,14.7599,2.3850100000000003,14.404L2.3850100000000003,6.75692C2.3850100000000003,6.40103,2.6755899999999997,6.11252,3.03404,6.11252L5.88974,6.11252ZM16.966,8.17459C17.3244,8.17459,17.615,8.4631,17.615,8.81899L17.615,14.404C17.615,14.7599,17.3244,15.0484,16.966,15.0484L14.1103,15.0484C13.7518,15.0484,13.4612,14.7599,13.4612,14.404L13.4612,8.81899C13.4612,8.4631,13.7518,8.17459,14.1103,8.17459L16.966,8.17459ZM11.4278,1C11.7863,1,12.0769,1.288505,12.0769,1.644396L12.0769,14.404C12.0769,14.7599,11.7863,15.0484,11.4278,15.0484L8.57215,15.0484C8.213709999999999,15.0484,7.92313,14.7599,7.92313,14.404L7.92313,1.644396C7.92313,1.288505,8.213709999999999,1,8.57215,1L11.4278,1ZM5.24007,7.40132L3.68241,7.40132L3.68241,13.7596L5.24007,13.7596L5.24007,7.40132ZM16.3169,9.46339L14.7593,9.46339L14.7593,13.7596L16.3169,13.7596L16.3169,9.46339ZM10.77883,2.28879L9.22118,2.28879L9.22117,13.7596L10.77883,13.7596L10.77883,2.28879Z" fill="nonzero" fill-opacity="1"/></g></g></svg>