<svg xmlns="http://www.w3.org/2000/svg" xmlns:xlink="http://www.w3.org/1999/xlink" fill="none" version="1.1" width="30" height="30" viewBox="0 0 30 30"><defs><clipPath id="master_svg0_159_14541"><rect x="0" y="0" width="30" height="30" rx="0"/></clipPath></defs><g clip-path="url(#master_svg0_159_14541)"><g><path d="M15.7924,5.67967C20.0047,6.10167,23.2179,9.75193,23.2179,14.1152L23.2094,14.1152C23.2147,14.1535,23.2179,14.1918,23.2179,14.2322L23.2179,19.856299999999997L24.2044,19.856299999999997C24.6438,19.856299999999997,25,20.2235,25,20.6764C25,21.1294,24.6438,21.4966,24.2044,21.4966L18.932299999999998,21.4966C18.6449,23.509,16.97,25,14.99682,25C13.02368,25,11.34874,23.509,11.061309999999999,21.4966L5.795587,21.4966C5.356197,21.4966,5,21.1294,5,20.6764C5,20.2235,5.356197,19.856299999999997,5.795587,19.856299999999997L6.77575,19.856299999999997L6.77575,14.2322C6.77575,14.1918,6.77893,14.1535,6.7842400000000005,14.1152L6.77575,14.1152C6.7755399999999995,9.75216,9.98872,6.1019000000000005,14.20123,5.67967L14.20123,4.820153C14.20123,4.367195,14.55743,4,14.99682,4C15.4362,4,15.7924,4.367195,15.7924,4.820153L15.7924,5.67967ZM8.36693,19.856299999999997L21.6267,19.856299999999997L21.6267,14.2322C21.6267,14.1918,21.6299,14.1535,21.6352,14.1152L21.6267,14.1152C21.6267,10.34057,18.6584,7.280609999999999,14.99682,7.280609999999999C11.33523,7.280609999999999,8.36692,10.34057,8.36692,14.1152L8.35844,14.1152C8.36374,14.1535,8.36692,14.1918,8.36692,14.2322L8.36693,19.856299999999997ZM17.3114,21.4966L12.68219,21.4966C12.94908,22.5902,13.90295,23.3567,14.99682,23.3567C16.0907,23.3567,17.044600000000003,22.5902,17.3114,21.4966Z" fill="#FFFFFF" fill-opacity="1"/></g></g></svg>