<svg xmlns="http://www.w3.org/2000/svg" xmlns:xlink="http://www.w3.org/1999/xlink" fill="nonzero" version="1.1" width="20" height="20" viewBox="0 0 20 20"><defs><clipPath id="master_svg0_106_9466"><rect x="0" y="0" width="20" height="20" rx="0"/></clipPath></defs><g clip-path="url(#master_svg0_106_9466)"><g><path d="M17.5886,16.5886L18.2965,16.5886C18.688,16.5886,19.0044,16.9039,19,17.2943C19,17.6846,18.6836,18,18.2921,18L2.7078699999999998,18C2.31633,18,2,17.6846,2,17.2943C2,16.9039,2.31633,16.5886,2.7078699999999998,16.5886L3.4378599999999997,16.5886L3.4378599999999997,5.09251C3.4369899999999998,4.18161,4.0218799999999995,3.37277,4.888999999999999,3.08567L10.70681,1.0722457C11.13595,0.9288977,11.61377,1.00157309,11.98098,1.2662149999999999C12.3504,1.530858,12.5694,1.958771,12.5694,2.41087L12.5694,7.30674L16.6618,9.06065C17.241300000000003,9.45761,17.5886,10.11045,17.5886,10.80955L17.5886,16.5886ZM4.85582,5.09483L4.85582,16.5886L11.15808,16.5908L11.15807,2.41087L5.34026,4.424300000000001C5.05048,4.52133,4.85582,4.79049,4.85582,5.09483ZM6.86661,7.03038L9.23134,7.03038C9.62288,7.03038,9.93921,7.34572,9.93921,7.73606C9.93921,8.12641,9.62288,8.441749999999999,9.23134,8.441749999999999L6.86661,8.441749999999999C6.47507,8.441749999999999,6.15874,8.12641,6.15874,7.73606C6.15874,7.34572,6.47507,7.03038,6.86661,7.03038ZM15.8654,10.22508L12.5716,9.01365L12.5716,16.5886L16.1751,16.5886L16.1751,10.80955C16.1751,10.57578,16.0601,10.3574,15.8654,10.22508ZM6.86661,9.94883L9.23134,9.94883C9.62288,9.94883,9.93921,10.26417,9.93921,10.65452C9.93921,11.0449,9.62288,11.3602,9.23134,11.3602L6.86661,11.3602C6.47507,11.3602,6.15874,11.0449,6.15874,10.65452C6.15874,10.26417,6.47507,9.94883,6.86661,9.94883Z" fill-rule="evenodd" fill="nonzero" fill-opacity="1"/></g></g></svg>