<svg t="1678253995112" class="icon" viewBox="0 0 1024 1024" version="1.1" xmlns="http://www.w3.org/2000/svg" p-id="2790" width="200" height="200"><path d="M965.12 435.84L538.88 94.72a42.24 42.24 0 0 0-53.76 0L58.88 435.84a42.88 42.88 0 1 0 53.12 64l37.12-29.44V896a42.88 42.88 0 0 0 42.88 42.88h640a42.88 42.88 0 0 0 42.88-42.88V472.96l37.12 29.44a42.88 42.88 0 1 0 53.12-64z m-176 417.28H234.88v-448L512 182.4l277.12 222.08z" fill="#333333" p-id="2791"></path><path d="M512 773.12h-7.04a213.12 213.12 0 0 1-160.64-205.44V460.16L512 389.12l167.68 71.04v107.52a213.12 213.12 0 0 1-160.64 203.52zM407.68 501.76v64A149.12 149.12 0 0 0 512 707.84a149.12 149.12 0 0 0 104.32-140.16v-64L512 457.6z" fill="#333333" p-id="2792"></path></svg>