<svg xmlns="http://www.w3.org/2000/svg" xmlns:xlink="http://www.w3.org/1999/xlink" fill="nonzero" version="1.1" width="20" height="20" viewBox="0 0 20 20"><defs><clipPath id="master_svg0_106_9438"><rect x="0" y="0" width="20" height="20" rx="0"/></clipPath></defs><g clip-path="url(#master_svg0_106_9438)"><g><path d="M18.383,12.7302L16.3962,12.7302L16.3962,10.66592C16.3953,9.89823,15.7973,9.2762,15.0592,9.27527L11.0276,9.27527L11.0276,7.17786L13.031,7.17786C13.769,7.17692,14.3671,6.55489,14.368,5.78721L14.368,2.39065C14.3671,1.622967,13.769,1.000933478,13.031,1L7.69286,1C6.95477,1.000933478,6.35672,1.622967,6.35582,2.39065L6.35582,5.78744C6.35649,6.55512,6.95477,7.17716,7.69286,7.17809L9.69058,7.17809L9.69058,9.2762L5.67966,9.2762C4.9415700000000005,9.27713,4.34351,9.89917,4.34262,10.66685L4.34262,12.7309L2.33705,12.7309C1.598956,12.7316,1.000897669,13.3538,1,14.1215L1,17.6091C1.000897669,18.3768,1.598956,18.9988,2.33705,18.9998L7.67244,18.9998C8.41053,18.9991,9.00859,18.3768,9.00949,17.6091L9.00949,14.1208C9.00859,13.3531,8.41053,12.7311,7.67244,12.7302L5.67787,12.7302L5.67787,10.66825L5.67899,10.66708L15.0576,10.66708L15.0587,10.66825L15.0587,12.7302L13.0455,12.7302C12.3074,12.7311,11.7094,13.3531,11.7085,14.1208L11.7085,17.6094C11.7094,18.377,12.3074,18.9991,13.0455,19L18.383,19C19.121,18.9993,19.7191,18.377,19.72,17.6094L19.72,14.1208C19.7191,13.3531,19.121,12.7311,18.383,12.7302ZM7.69286,5.78628L7.69286,2.3920500000000002L7.69399,2.39088L13.0289,2.39088L13.0301,2.3920500000000002L13.0301,5.78651L13.0289,5.78791L7.69376,5.78791L7.69286,5.78628ZM7.67199,14.1222L7.67199,17.6082L7.67087,17.6094L2.33705,17.6094L2.3359300000000003,17.6082L2.3359300000000003,14.1222L2.33705,14.1211L7.67132,14.1211L7.67199,14.1222ZM18.383,17.6082L18.3818,17.6094L13.0469,17.6094L13.0458,17.6082L13.0458,14.1222L13.0469,14.1211L18.3812,14.1211L18.3823,14.1222L18.383,17.6082Z" fill="nonzero" fill-opacity="1"/></g></g></svg>