<svg xmlns="http://www.w3.org/2000/svg" xmlns:xlink="http://www.w3.org/1999/xlink" fill="nonzero" version="1.1" width="20" height="20" viewBox="0 0 20 20"><defs><clipPath id="master_svg0_51_0142"><rect x="0" y="0" width="20" height="20" rx="0"/></clipPath></defs><g clip-path="url(#master_svg0_51_0142)"><g><path d="M14.1485,8.373899999999999C15.7912,8.37614,17.1443,9.59802,17.1467,11.1349C17.1467,11.8622,16.828699999999998,12.5543,16.281100000000002,13.0654L16.203,13.1327L16.203,13.7088L16.6764,13.7088C17.8994,13.7111,18.9227,14.5903,18.9961,15.7306L19,15.8578C18.9968,17.055,17.942,17.9978,16.6725,18L11.619,18C10.35031,17.9985,9.29701,17.0527,9.29543,15.8518C9.29701,14.6546,10.35189,13.7111,11.6214,13.7088L12.0908,13.7088L12.0908,13.1327L12.0143,13.0654C11.508,12.597,11.2017,11.968,11.1543,11.2988L11.148,11.1297C11.1503,9.67658,12.3733,8.49137,13.9623,8.37988L14.1485,8.373899999999999ZM14.4128,1C15.2843,1,15.9908,1.669996,15.9908,2.49648L15.9916,3.69067L15.9916,7.09441C15.9916,7.17375,15.9238,7.23807,15.8401,7.23807L15.3012,7.23807C14.9199,7.23807,14.6109,6.94495,14.6109,6.58336L14.6109,5.86655L14.6101,5.86655L14.6101,2.49723C14.6099,2.41046,14.5469,2.33519,14.4578,2.3154L14.4128,2.3101700000000003L2.57798,2.3101700000000003C2.4861899999999997,2.3099600000000002,2.40639,2.3698300000000003,2.38546,2.45458L2.38073,2.49723L2.38073,15.9655C2.3805199999999997,16.052599999999998,2.4436400000000003,16.1283,2.533,16.1481L2.57798,16.1526L4.39581,16.1526L7.99676,16.1518C8.080390000000001,16.1518,8.148240000000001,16.2162,8.148240000000001,16.2955L8.148240000000001,16.8066C8.148240000000001,17.1681,7.83916,17.4613,7.45788,17.4613L6.53397,17.4613L6.53397,17.462L2.57798,17.462C1.706485,17.462,1,16.792,1,15.9655L1,2.49723C1,1.6707450000000001,1.706485,1.000748542,2.57798,1.000748542L14.4128,1.000748542L14.4128,1ZM14.1469,9.60849L14.0152,9.61373C13.1354,9.67583,12.4514,10.33728,12.4498,11.1319C12.4514,11.5868,12.681,12.0193,13.0763,12.3081L13.3927,12.5386L13.3927,14.9434L11.6214,14.9434C11.0509,14.9442,10.59805,15.3572,10.59727,15.8533C10.59727,16.351599999999998,11.0509,16.764699999999998,11.6206,16.7654L16.6725,16.7654C17.2437,16.764699999999998,17.6974,16.351599999999998,17.6982,15.8555C17.6974,15.3572,17.2445,14.9442,16.674799999999998,14.9434L14.902,14.9434L14.902,12.5408L15.2168,12.3096C15.6137,12.0193,15.8448,11.5846,15.8448,11.1349C15.844,10.29762,15.089,9.60999,14.1469,9.60849ZM8.19716,8.36716C8.28079,8.36716,8.34865,8.43151,8.34865,8.51083L8.34865,9.02187C8.34865,9.38346,8.03956,9.67658,7.65828,9.67658L4.87078,9.67658C4.78712,9.67658,4.71929,9.61226,4.71929,9.53292L4.71929,9.02187C4.71929,8.66047,5.02858,8.36716,5.40966,8.36716L8.19716,8.36716ZM12.1421,5.18715C12.2257,5.18715,12.2936,5.2515,12.2936,5.33081L12.2936,5.84186C12.2936,6.20344,11.9845,6.49657,11.6032,6.49657L4.87078,6.49657C4.78712,6.49657,4.71929,6.43225,4.71929,6.3529L4.71929,5.84186C4.71929,5.48046,5.02858,5.18715,5.40966,5.18715L12.1421,5.18715Z" fill="nonzero" fill-opacity="1"/></g></g></svg>