<svg xmlns="http://www.w3.org/2000/svg" xmlns:xlink="http://www.w3.org/1999/xlink" fill="nonzero" version="1.1" width="20" height="20" viewBox="0 0 20 20"><defs><clipPath id="master_svg0_106_9430"><rect x="0" y="0" width="20" height="20" rx="0"/></clipPath></defs><g clip-path="url(#master_svg0_106_9430)"><g><path d="M14.2606,2C15.0044,1.99999346973,15.6914,2.3835,16.061700000000002,3.0054499999999997L18.6305,7.31937L18.6295,7.31937C18.8651,7.71212,19,8.16811,19,8.65446C19,10.12915,17.7602,11.32463,16.230800000000002,11.32463L3.76924,11.32463C3.50189,11.32463,3.24339,11.28809,2.9988200000000003,11.21993C1.8442669999999999,10.89813,1.00000606071,9.87136,1.000000000032631,8.65446C1,8.39506,1.0383593,8.14432,1.109905,7.90719C1.132229,7.83321,1.157783,7.76055,1.18641,7.68937C1.249534,7.53242,1.3276029999999999,7.38265,1.418932,7.24169L3.99617,2.991777C4.36864,2.377544,5.05116,2,5.7891,2L14.2606,2ZM2.98405,9.75427C3.08216,9.81952,3.18944,9.87288,3.30363,9.912189999999999C3.44232,9.95992,3.59122,9.986930000000001,3.74631,9.98935L3.76921,9.98953L16.2307,9.98953C16.9954,9.98953,17.6154,9.39179,17.6154,8.65445C17.6154,8.63373,17.6149,8.6131,17.6139,8.59258C17.5807,7.89125,16.9864,7.33101,16.253700000000002,7.31956L16.230800000000002,7.31938L3.76924,7.31938C3.00454,7.31938,2.38462,7.91712,2.38462,8.65446C2.38462,9.11068,2.62195,9.51346,2.98405,9.75427ZM16.2389,5.98431L16.230800000000002,5.9843L3.78537,5.9843L5.19147,3.66567L5.19699,3.6566799999999997C5.32246,3.45702,5.54699,3.33507,5.7891,3.33508L14.2606,3.33508L14.2713,3.33515C14.5154,3.33881,14.7394,3.46612,14.8609,3.6702399999999997L16.2389,5.98431ZM5.84615,7.98698C6.2285,7.98698,6.53846,8.28583,6.53846,8.654499999999999C6.53846,9.02317,6.2285,9.322040000000001,5.84615,9.322040000000001L4.46155,9.322040000000001C4.0792,9.322040000000001,3.76924,9.02317,3.76924,8.654499999999999C3.76924,8.28583,4.0792,7.98696,4.46155,7.98696L5.84615,7.98698ZM19,15.3298C19,13.8551,17.7602,12.6597,16.230800000000002,12.6597L3.76924,12.6597C2.23984,12.6597,1,13.8552,1,15.3298C1,16.8045,2.23984,18,3.76924,18L16.230800000000002,18C17.7602,18,19,16.8045,19,15.3298ZM3.76924,13.9948L16.230800000000002,13.9948L16.253700000000002,13.9949C17.0078,14.0067,17.6154,14.5999,17.6154,15.3298C17.6154,16.0672,16.9955,16.6649,16.230800000000002,16.6649L3.76924,16.6649L3.74633,16.6647C2.9922,16.653,2.38462,16.0598,2.38462,15.3298C2.38462,14.5925,3.00454,13.9948,3.76924,13.9948ZM5.84615,14.6623C6.2285,14.6623,6.53846,14.9612,6.53846,15.3299C6.53846,15.6985,6.2285,15.9974,5.84615,15.9974L4.46155,15.9974C4.0792,15.9974,3.76924,15.6985,3.76924,15.3299C3.76924,14.9612,4.0792,14.6623,4.46155,14.6623L5.84615,14.6623Z" fill-rule="evenodd" fill="nonzero" fill-opacity="1"/></g></g></svg>