<svg xmlns="http://www.w3.org/2000/svg" xmlns:xlink="http://www.w3.org/1999/xlink" fill="nonzero" version="1.1" width="20" height="20" viewBox="0 0 20 20"><defs><clipPath id="master_svg0_106_9441"><rect x="0" y="0" width="20" height="20" rx="0"/></clipPath></defs><g clip-path="url(#master_svg0_106_9441)"><g><path d="M2.3424300000000002,2L16.657600000000002,2C17.399,2,18,2.5989459999999998,18,3.33778L18,14.038C17.9989,14.776,17.3982,15.3738,16.657600000000002,15.3738L2.3424300000000002,15.3738C1.6018219999999999,15.3738,1.00112614,14.776,1,14.038L1,3.33778C1,2.5989459999999998,1.601025,2,2.3424300000000002,2ZM2.3424300000000002,14.038L16.657600000000002,14.038L16.657600000000002,3.33778L2.3424300000000002,3.33778L2.3424300000000002,14.038ZM7.33413,11.98561C7.41294,12.1216,7.55858,12.2055,7.71622,12.2055L11.2838,12.2055C11.4414,12.2055,11.587,12.1216,11.6659,11.98561L13.4496,8.90687C13.5293,8.77102,13.5293,8.6029,13.4496,8.46705L11.6659,5.38832C11.587,5.25228,11.4414,5.16846,11.2838,5.16841L7.71622,5.16841C7.55858,5.16846,7.41294,5.25228,7.33413,5.38832L5.55035,8.46705C5.47066,8.6029,5.47066,8.77102,5.55035,8.90687L7.33413,11.98561ZM8.23725,6.50619L10.76273,6.50619L12.0275,8.68696L10.76273,10.86773L8.23725,10.86773L6.97247,8.68696L8.23725,6.50619ZM9.5,10.02472C10.2414,10.02472,10.84242,9.42578,10.84242,8.68694C10.84242,7.9481,10.2414,7.34916,9.5,7.34916C8.75859,7.34916,8.15757,7.9481,8.15757,8.68694C8.15757,9.42578,8.75859,10.02472,9.5,10.02472ZM9.5,8.24101C9.74713,8.24101,9.94747,8.440660000000001,9.94747,8.68694C9.94747,8.93322,9.74713,9.13287,9.5,9.13287C9.25286,9.13287,9.05252,8.93322,9.05252,8.68694C9.05252,8.440660000000001,9.25286,8.24101,9.5,8.24101ZM5.74697,16.6622L13.253,16.6622C13.6094,16.681800000000003,13.8882,16.9755,13.8882,17.3311C13.8882,17.686799999999998,13.6094,17.9804,13.253,18L5.74697,18C5.39064,17.9804,5.11177,17.686799999999998,5.11177,17.3311C5.11177,16.9755,5.39064,16.681800000000003,5.74697,16.6622Z" fill-rule="evenodd" fill="nonzero" fill-opacity="1"/></g></g></svg>